<?xml version="1.0" encoding="UTF-8"?> <svg xmlns="http://www.w3.org/2000/svg" width="49" height="38" fill="none"><path d="M48.858 16.633c-.047-.103-.12-.223-.248-.228-.114-.005-.239.077-.38.248 0 0-2.757 4.918-5.15 4.067-.526-.187-.716-.489-.715-.568.004-.384.167-1.032.377-1.413.036-.066.885-1.617 1.193-2.8.253-.983.371-2.553-.341-2.845a.97.97 0 00-.32-.097c-.023-.001-.093-.004-.155.064-.17.19-.431.383-.624.296-.262-.118-.805-.181-1.404-.099-1.75.242-3.93 1.985-5.29 5.362-.051.068-1.745 1.855-2.458 1.83-.07-.131-.169-.513-.105-1.338.055-.702.245-1.92.835-3.744l.002-.003C40 8.794 42.91 4.055 42.488 1.66c-.104-.587-.41-1.025-.886-1.268-.152-.078-.357-.094-.502-.094-.442 0-2.036.173-3.994 2.397-2.063 2.343-3.806 6.11-5.182 11.195a78.246 78.246 0 00-.582 2.279c-.382.373-.76.751-1.125 1.118-1.468 1.47-2.985 2.992-3.74 2.992a.339.339 0 01-.213-.065c-.06-.07-.203-.526-.078-1.72.116-1.12.431-2.509.886-3.917 5.91-6.55 8.708-10.998 8.317-13.218-.1-.573-.417-1.01-.914-1.264C34.322.016 34.117 0 33.973 0c-.442 0-2.037.173-3.994 2.397-2.058 2.337-3.797 6.089-5.171 11.153-.168.22-.944.943-1.403 1.239-.103-.817-.765-1.45-1.444-1.614a2.064 2.064 0 00-.487-.059c-.886 0-1.71.57-2.401 1.126-.828.668-1.781 1.552-2.58 3.04-1.084 2.017-1.976 5.284-.567 6.232.32.214.673.323 1.053.323 1.917 0 3.944-2.76 4.562-3.823a24.691 24.691 0 001.661-3.551c.324-.107.685-.28 1.018-.466-.817 3.564-.86 5.77-.133 6.736.278.37.66.558 1.135.558.738 0 1.538-.463 2.075-.811.526-.341 1.759-1.495 3.429-3.207-.195 1.56-.057 2.613.42 3.207.28.35.665.528 1.143.528.54 0 1.114-.23 1.6-.497a9.84 9.84 0 001.229-.73.59.59 0 01.41-.17.349.349 0 01.309.204c.026.053.8 1.356 1.686 1.356 1.468 0 2.459-1.149 2.52-1.2a.523.523 0 01.346-.142c.14.006.245.14.342.266.167.217.996.951 1.946.99 1.47.062 2.888-.642 4.166-2.06.41-.457 2.155-3.182 2.157-3.55-.002-.225-.045-.634-.142-.842zM39.483 2.725c.746 2.73-2.74 7.317-4.55 9.577 1.113-3.713 3.677-8.13 4.55-9.577zm-7.132-.324c.78 2.674-2.639 6.816-4.46 8.98 1.093-3.626 3.599-7.656 4.46-8.98zM19.742 19.628c-.45.497-.895.794-1.19.794a.32.32 0 01-.104-.016c-.299-.101-.482-.333-.559-.71-.177-.87.244-2.155.581-2.87.146.249.39.486.788.626.227.08.463.12.702.12.387 0 .735-.103 1.026-.223-.14.692-.619 1.59-1.244 2.28zm21.69-3.177c-.004.012-.91 2.658-1.14 2.996-.194.283-.856.953-1.589.862-.402-.049-1.223-.757-.896-1.8.604-1.938 1.983-3.156 2.962-3.16.745-.003.795.732.663 1.102zM15.208 9.827c-.269.314-.67.502-1.07.502-.522 0-.947-.307-1.167-.841-.354-.862-.55-1.862.682-2.743.138-.1.284-.15.435-.15.633 0 1.112.855 1.288 1.223.396.825.348 1.407-.168 2.009zM13.99 21.204c.232-.684.446-1.299.635-1.841.736-2.112 1.141-3.275 1.114-4.269-.027-.965-.481-1.774-1.13-2.012a1.079 1.079 0 00-.375-.067c-.49 0-.892.306-1.09.569-.254.34-.18.793-.109 1.232.031.193.064.393.07.583.03 1.105-.626 3.953-1.01 4.918-.25.627-.864 1.131-1.459 1.62l-.222.183-.12.106c-.384.34-1.553 1.373-2.116 1.799-2.1 1.587-5.866 4.792-7.489 8.42-1.33 2.975-.344 4.507-.228 4.672l.008.011c.508.72 1.164.872 1.624.872.516 0 1.09-.184 1.703-.547 2.49-1.473 6.767-7.853 8.52-12.042.108-.258.62-1.36.759-1.53.048-.059.207-.156.36-.25.216-.133.461-.282.576-.426.208-.26.4-.812.028-1.189-.271-.276-.192-.462-.102-.676.019-.044.038-.09.053-.136zM2.437 33.37c-.18-.862 1.138-2.85 2.132-3.986l.034-.04c1.064-1.216 1.706-1.95 3.171-3.115 1.338-1.065 1.944-1.339 2.213-1.392-.144.408-.355.92-.831 1.733-2.04 3.477-4.846 7.218-6.19 7.218a.566.566 0 01-.235-.048.49.49 0 01-.294-.37z" fill="#000"></path></svg> 