<?xml version="1.0" encoding="UTF-8"?> <svg xmlns="http://www.w3.org/2000/svg" xmlns:xlink="http://www.w3.org/1999/xlink" width="91px" height="72px" viewBox="0 0 91 72" version="1.1"><title>Sailfish OS</title><g id="Page-1" stroke="none" stroke-width="1" fill="none" fill-rule="evenodd"><g id="Logo"><rect id="Background" fill="#053766" x="0" y="0" width="91" height="72"></rect><path d="M68,24.48 C67.9488786,24.3508901 67.8482408,24.2475904 67.7205091,24.1931166 C67.5927774,24.1386428 67.448564,24.1375206 67.32,24.19 L63.42,25.55 C61.7122939,26.121878 59.9684461,26.5795545 58.2,26.92 C54.59,27.58 52,24.69 52,24.69 C51.8562377,24.5119047 51.6158168,24.4437854 51.4,24.52 C51.141947,24.6038132 50.8882907,24.7006031 50.64,24.81 C51.0565681,21.9838098 52.0213069,19.2662358 53.48,16.81 C53.6503335,16.6384303 53.6503335,16.3615697 53.48,16.19 C53.3167422,15.9885951 53.0440117,15.912391 52.8,16 C50.3398027,17.2312526 47.9968006,18.6839139 45.8,20.34 C41,24.07 38.33,27.87 38,31.68 C37.75,34.78 39.79,36.81 41.74,38.68 L42.08,39.01 C42.7593822,40.9866102 42.5854771,43.1568009 41.6,45 C39.86,48.84 36,52.19 31.16,54 C29.64,54.58 28.36,55 28.36,55 C28.1019694,55.0859532 27.9537585,55.3562201 28.02,55.62 C28.0894643,55.8439617 28.2955264,55.9974982 28.53,56 L28.66,56 C32.4511694,55.0688031 36.1370501,53.7519385 39.66,52.07 L40.66,51.57 C46.86,48.35 50.17,44.57 50.55,40.41 C50.81,37.76 49.24,35.98 47.55,34.41 C49.71,31.41 56.71,29.03 56.76,29.03 L63.67,26.63 C65.88,25.93 67.58,25.26 67.67,25.22 C67.8100326,25.1766581 67.9239922,25.0740496 67.9817355,24.9393152 C68.0394788,24.8045808 68.0351887,24.6512939 67.97,24.52 L68,24.48 Z M49.63,25.35 C47.3667132,26.4187085 45.3661349,27.9720585 43.77,29.9 C43.4395454,29.0860726 43.3092303,28.204731 43.39,27.33 C43.65,24.48 46.7,21.17 47.17,20.67 C48.6682625,19.6083698 50.2239603,18.6302165 51.83,17.74 C50.611237,20.113855 49.8480688,22.6950594 49.58,25.35 L49.63,25.35 Z M36.76,52.24 C39.2691492,50.5062243 41.2877279,48.1535122 42.62,45.41 C43.3399436,43.9173687 43.6603795,42.2635064 43.55,40.61 C44.5346669,41.6115721 45.0597302,42.9767367 45,44.38 C44.62,48.02 40.12,50.62 40.08,50.66 C39,51.23 37.89,51.75 36.76,52.24 L36.76,52.24 Z M49.45,40.32 C49.2,43.18 47.37,45.62 44.87,47.64 C45.5058622,46.7055913 45.8946237,45.6253161 46,44.5 C46.26,41.77 44.35,39.87 42.48,38.05 C40.61,36.23 38.83,34.45 39.04,31.84 C39.3,28.78 41.21,26.05 43.54,23.74 C42.8634307,24.8168423 42.4300138,26.0283618 42.27,27.29 C41.93,30.64 44.18,32.71 46.13,34.53 C48.08,36.35 49.65,37.8 49.44,40.32 L49.45,40.32 Z M46.69,33.62 C45.7861886,32.8416769 44.9742574,31.9626439 44.27,31 C46.1,28.07 50.27,26.16 51.49,25.67 C52.7887643,26.927065 54.4509633,27.7424173 56.24,28 C55.22,28.37 49,30.56 46.69,33.62 L46.69,33.62 Z" id="Shape" fill="#FFFFFF" fill-rule="nonzero"></path></g></g></svg> 